<?xml version="1.0" standalone="no"?>
<!DOCTYPE svg PUBLIC "-//W3C//DTD SVG 20010904//EN"
 "http://www.w3.org/TR/2001/REC-SVG-20010904/DTD/svg10.dtd">
<svg version="1.0" xmlns="http://www.w3.org/2000/svg"
 width="260.000000pt" height="260.000000pt" viewBox="0 0 260.000000 260.000000"
 preserveAspectRatio="xMidYMid meet">
<metadata>
Created by potrace 1.11, written by Peter Selinger 2001-2013
</metadata>
<g transform="translate(0.000000,260.000000) scale(0.100000,-0.100000)"
fill="#000000" stroke="none">
<path d="M33 2586 c4 -11 1 -13 -11 -9 -15 6 -15 5 -3 -10 7 -9 17 -14 22 -11
5 3 9 -9 9 -25 0 -17 -5 -31 -11 -31 -7 0 -9 -9 -4 -22 29 -96 24 -128 -15
-93 -19 18 -20 18 -20 -1 0 -11 12 -28 26 -39 26 -19 26 -20 19 -114 -4 -53
-9 -99 -11 -103 -3 -5 2 -8 10 -8 9 0 16 5 16 11 0 5 5 7 12 3 7 -4 8 -3 4 4
-9 15 -15 171 -7 177 4 2 4 37 0 77 -13 127 -13 128 21 128 33 0 35 3 19 49
-9 27 -16 31 -46 31 -27 0 -34 -4 -30 -14z"/>
<path d="M120 2591 c0 -6 5 -13 10 -16 6 -3 10 1 10 9 0 9 -4 16 -10 16 -5 0
-10 -4 -10 -9z"/>
<path d="M206 2575 c8 -31 -19 -77 -41 -69 -18 7 -18 11 4 -54 24 -70 31 -74
31 -20 0 51 22 123 47 150 15 17 14 18 -16 18 -29 0 -31 -2 -25 -25z"/>
<path d="M365 2584 c11 -8 26 -22 33 -31 10 -15 12 -13 12 15 0 29 -3 32 -32
32 -32 -1 -32 -1 -13 -16z"/>
<path d="M487 2492 c-90 -250 -157 -445 -155 -447 36 -28 114 -47 128 -30 8 9
6 14 -6 19 -9 4 -14 12 -10 22 3 8 -1 28 -9 44 -8 16 -11 31 -6 34 5 3 11 18
14 34 6 32 88 116 154 159 23 15 41 29 40 33 -2 7 69 70 106 93 32 20 34 38 8
54 -16 10 -19 8 -24 -15 -8 -39 -28 -61 -57 -64 -14 -2 -30 -12 -37 -23 -19
-32 -15 -7 13 74 38 108 40 110 101 61 28 -22 55 -40 60 -40 4 0 24 13 43 29
19 15 50 36 68 45 19 10 32 20 29 22 -3 3 -14 0 -26 -8 -16 -10 -23 -10 -33 0
-8 8 -62 12 -188 12 l-175 0 -38 -108z"/>
<path d="M1720 2563 c34 -19 64 -32 67 -29 3 2 -13 14 -36 26 -23 11 -41 24
-41 28 0 4 -12 8 -26 9 -20 1 -12 -7 36 -34z"/>
<path d="M1840 2560 c22 -43 26 -65 10 -55 -5 3 -10 1 -10 -4 0 -6 6 -11 14
-11 7 0 30 -11 50 -25 38 -26 64 -35 32 -12 -15 11 -17 17 -7 35 6 12 8 22 4
22 -4 0 -3 4 4 8 6 4 14 24 18 45 l7 37 -71 0 -71 0 20 -40z"/>
<path d="M2006 2587 c2 -7 -7 -44 -21 -81 -14 -38 -24 -70 -22 -73 4 -3 34 67
52 122 5 16 8 17 15 5 8 -12 10 -10 10 8 0 13 -4 20 -10 17 -5 -3 -10 -1 -10
4 0 6 -4 11 -10 11 -5 0 -7 -6 -4 -13z"/>
<path d="M2110 2590 c0 -6 9 -29 20 -51 12 -22 18 -44 15 -49 -3 -5 -1 -11 5
-15 15 -9 12 -43 -7 -76 -22 -36 -34 -41 -68 -23 -24 13 -26 12 -15 -1 7 -8
17 -15 24 -15 20 0 134 -85 150 -112 22 -36 20 -70 -5 -102 -11 -14 -17 -26
-12 -26 4 0 0 -5 -9 -11 -10 -5 -18 -19 -18 -29 0 -11 -7 -20 -15 -20 -8 0
-15 -4 -15 -10 0 -6 -30 -10 -70 -10 -39 0 -86 -6 -105 -14 -33 -14 -35 -13
-94 25 -33 21 -63 39 -67 39 -3 0 -20 6 -37 14 -18 8 -55 22 -84 32 -39 13
-50 21 -45 33 5 13 3 14 -9 4 -15 -12 -20 -11 -189 26 -52 11 -111 21 -131 21
-30 0 -38 5 -56 38 -46 85 -65 118 -78 131 -28 29 -9 -19 33 -82 23 -35 42
-66 42 -69 0 -3 -39 -8 -87 -11 -126 -8 -263 -54 -327 -109 -99 -86 -217 -302
-280 -514 -15 -49 -33 -109 -41 -134 -8 -25 -15 -54 -15 -66 0 -12 -11 -33
-25 -48 -28 -30 -33 -51 -10 -42 21 8 20 -54 -1 -114 -18 -51 -24 -235 -12
-360 7 -65 5 -78 -11 -99 -17 -23 -20 -23 -35 -9 -9 9 -16 21 -16 26 0 11 -82
113 -87 108 -2 -2 14 -30 35 -62 22 -33 60 -100 85 -150 25 -49 52 -96 61
-103 9 -8 16 -18 16 -23 0 -6 21 -33 46 -62 47 -51 83 -116 84 -148 0 -18 -38
-50 -50 -43 -4 2 1 -21 11 -52 11 -31 19 -68 19 -83 0 -15 3 -30 7 -34 4 -4 8
-13 9 -19 0 -7 2 -20 2 -30 1 -10 6 -16 11 -13 4 3 6 -6 3 -19 -3 -20 0 -25
17 -25 15 0 20 4 15 12 -14 23 -22 93 -12 106 6 6 23 12 38 12 29 0 70 -38
106 -99 l18 -31 108 0 c59 0 108 3 108 6 0 16 -22 43 -33 39 -11 -5 -57 54
-57 74 0 5 -7 11 -15 15 -8 3 -15 12 -15 20 0 7 -7 16 -15 20 -8 3 -15 12 -15
21 0 8 -7 15 -15 15 -8 0 -15 4 -15 8 0 18 -72 91 -93 94 -17 2 -22 9 -20 31
2 23 -10 41 -55 86 -31 32 -65 60 -75 64 -10 4 -15 11 -12 17 3 5 0 10 -7 10
-11 0 -48 66 -48 86 0 8 53 -5 60 -14 24 -32 169 -113 265 -149 188 -71 310
-103 396 -103 31 0 74 -7 95 -16 30 -13 58 -15 130 -10 l92 6 5 -26 c3 -16 0
-27 -9 -31 -8 -3 -14 -11 -14 -18 0 -7 -7 -18 -15 -25 -8 -7 -12 -16 -9 -21 3
-5 0 -9 -6 -9 -17 0 -45 -30 -28 -30 7 -1 -4 -10 -25 -21 -43 -23 -45 -37 -3
-18 21 10 29 10 39 0 9 -10 -1 -24 -48 -66 -57 -51 -59 -54 -32 -55 15 0 27 5
27 10 0 12 27 40 60 61 14 9 37 26 50 37 27 23 90 73 137 109 16 12 43 35 59
50 16 15 56 41 89 59 33 17 59 36 57 42 -2 13 33 52 47 52 6 0 13 -5 17 -12 4
-6 3 -8 -2 -5 -5 3 -21 -3 -34 -14 -17 -12 -20 -19 -10 -18 8 0 24 6 34 14 11
8 28 15 38 15 11 0 18 7 18 18 0 13 -2 14 -9 3 -9 -14 -31 -7 -31 10 0 6 5 7
10 4 6 -3 10 1 10 9 0 8 9 17 19 21 11 3 22 13 25 21 3 8 10 13 15 9 9 -5 24
25 26 49 0 15 39 24 57 14 25 -12 73 19 58 37 -9 11 -7 12 9 8 27 -7 48 11 56
48 6 26 20 35 49 30 5 -1 4 4 -3 12 -9 12 -7 16 11 22 48 15 99 15 104 0 4 -8
12 -15 20 -15 8 0 14 -4 14 -10 0 -5 6 -10 13 -10 24 0 42 -46 29 -75 -11 -23
-10 -25 13 -25 26 0 51 -33 39 -52 -4 -7 -3 -8 4 -4 15 9 16 136 1 136 -5 0
-8 4 -5 9 9 13 -31 44 -49 38 -10 -4 -15 0 -15 12 0 18 -13 27 -50 39 -27 8
-84 2 -91 -9 -4 -7 -23 -13 -43 -14 -35 -2 -96 -38 -156 -90 -39 -34 -113 -73
-129 -67 -10 3 -12 0 -8 -12 4 -9 2 -16 -3 -16 -5 0 -26 -18 -46 -40 -32 -34
-43 -40 -75 -38 -21 1 -40 6 -42 13 -5 12 12 82 31 128 7 16 12 32 12 37 0 5
4 10 10 12 5 2 11 12 13 23 2 11 9 31 17 45 8 14 13 31 12 38 -2 6 6 12 16 12
15 0 21 9 25 42 7 50 1 60 -19 34 -20 -29 -78 -32 -102 -5 -24 25 -35 69 -17
69 7 0 18 -7 25 -15 7 -9 29 -15 51 -15 34 0 39 3 50 35 7 19 16 35 20 35 4 0
10 17 13 38 4 20 15 55 25 77 34 74 41 95 35 110 -4 8 -1 22 6 30 6 7 10 25 8
39 -2 20 -13 6 -53 -72 -27 -53 -52 -99 -55 -102 -3 -3 -14 -27 -25 -55 -13
-31 -28 -51 -39 -53 -17 -4 -18 2 -14 74 l5 79 -22 -68 c-26 -82 -45 -106 -45
-58 0 51 28 138 72 224 42 80 74 112 83 82 3 -8 7 -22 10 -30 2 -8 0 -17 -5
-20 -6 -4 -10 -16 -9 -28 0 -17 4 -15 16 13 8 19 20 40 27 45 19 16 56 81 56
99 0 9 5 16 11 16 6 0 9 6 6 14 -3 8 -1 16 4 18 7 2 11 61 11 156 0 121 -4
163 -18 202 -12 34 -24 50 -35 50 -16 0 -49 49 -49 72 0 5 -10 22 -21 38 -28
37 -19 65 16 56 15 -4 25 -2 25 4 0 7 22 9 63 5 34 -3 98 -7 142 -10 91 -6
143 -12 165 -21 27 -11 176 -14 160 -4 -8 5 -37 10 -65 11 -51 1 -125 16 -92
18 22 1 22 14 -2 35 -16 15 -19 15 -31 1 -7 -8 -20 -15 -29 -16 -12 0 -12 -2
4 -9 17 -8 15 -9 -10 -7 -26 2 -30 6 -27 27 2 14 3 42 2 64 -1 32 2 37 16 32
14 -5 16 -1 11 29 -6 34 -5 35 28 35 19 0 37 -5 40 -10 4 -6 15 -8 25 -5 17 5
29 2 103 -29 l37 -16 0 64 0 64 -34 12 c-19 6 -37 17 -40 25 -3 8 -17 15 -30
15 -46 0 -66 88 -26 112 11 7 20 18 20 25 0 6 25 33 55 58 30 26 55 56 55 66
0 17 -8 19 -61 19 -53 0 -66 -4 -99 -30 -21 -16 -41 -30 -44 -30 -3 0 -15 -9
-26 -20 -11 -11 -32 -20 -46 -20 -28 0 -64 16 -64 29 0 5 -13 23 -29 40 -24
26 -36 31 -75 31 -25 0 -46 -5 -46 -10z m195 -245 c0 -11 -7 -21 -16 -23 -12
-2 -16 4 -16 23 0 19 4 25 16 23 9 -2 16 -12 16 -23z m-26 -250 c0 -29 -2 -36
-9 -25 -5 8 -10 11 -10 5 0 -5 -5 -2 -11 8 -8 13 -7 22 3 34 11 15 11 16 -5
10 -17 -6 -17 -6 0 24 18 30 18 30 25 7 3 -13 6 -41 7 -63z m-1100 59 c43 -9
91 -55 91 -88 0 -31 -24 -71 -48 -81 -74 -31 -159 -21 -204 22 -37 35 -36 71
1 107 41 40 94 53 160 40z m640 -152 c14 -10 34 -30 45 -45 20 -27 20 -28 2
-62 -42 -78 -189 -87 -250 -14 -44 51 -30 97 39 138 28 16 134 5 164 -17z
m171 -12 c0 -5 -2 -10 -4 -10 -3 0 -8 5 -11 10 -3 6 -1 10 4 10 6 0 11 -4 11
-10z m-975 -249 c51 -23 68 -44 68 -82 0 -66 -94 -118 -177 -99 -85 19 -122
74 -93 135 30 62 121 83 202 46z m641 -142 c39 -24 54 -47 54 -84 0 -41 -18
-65 -63 -86 -73 -33 -145 -21 -204 34 -26 23 -31 81 -9 109 38 51 160 66 222
27z m-291 -299 c119 -17 129 -18 162 -25 22 -5 39 -18 53 -42 36 -61 18 -63
-155 -11 -113 34 -205 73 -205 87 0 10 12 9 145 -9z m195 -225 c0 -9 -6 -12
-15 -9 -8 4 -12 10 -9 15 8 14 24 10 24 -6z m-95 -15 c70 -33 105 -75 105
-125 0 -107 -156 -123 -245 -24 -91 101 11 211 140 149z m275 -216 c0 -13 -4
-24 -9 -24 -10 0 -21 47 -13 54 10 11 22 -6 22 -30z m-896 -78 c51 -30 86 -76
86 -113 0 -38 -9 -50 -51 -67 -83 -34 -219 46 -219 130 0 71 101 99 184 50z
m1338 -178 c-6 -6 -15 -8 -19 -4 -4 4 -1 11 7 16 19 12 27 3 12 -12z"/>
<path d="M258 2563 c-9 -10 -19 -28 -22 -40 -6 -17 -3 -20 11 -17 10 3 51 -6
91 -19 39 -13 72 -22 72 -21 0 14 -29 64 -49 87 -29 32 -79 37 -103 10z"/>
<path d="M2068 2561 c-27 -26 -41 -73 -26 -83 23 -14 33 -9 52 26 16 30 16 37
5 54 -13 17 -15 18 -31 3z"/>
<path d="M150 2563 c0 -4 5 -15 10 -23 8 -13 10 -13 10 2 0 9 -4 20 -10 23 -5
3 -10 3 -10 -2z"/>
<path d="M2300 2550 c-9 -6 -10 -10 -3 -10 6 0 15 5 18 10 8 12 4 12 -15 0z"/>
<path d="M686 2534 c-8 -21 -6 -23 17 -15 17 6 17 9 4 19 -12 10 -16 9 -21 -4z"/>
<path d="M2330 2530 c-13 -8 -12 -10 3 -10 9 0 17 5 17 10 0 12 -1 12 -20 0z"/>
<path d="M1807 2519 c7 -7 15 -10 18 -7 3 3 -2 9 -12 12 -14 6 -15 5 -6 -5z"/>
<path d="M424 2464 l10 -57 13 38 c7 21 12 39 11 39 -2 1 -12 9 -24 19 l-21
17 11 -56z"/>
<path d="M2576 2501 c-12 -14 -14 -21 -6 -26 7 -4 10 -18 7 -31 -3 -16 0 -24
9 -24 10 0 14 14 14 50 0 28 -2 50 -3 50 -2 0 -12 -9 -21 -19z"/>
<path d="M1 2494 c0 -11 3 -14 6 -6 3 7 2 16 -1 19 -3 4 -6 -2 -5 -13z"/>
<path d="M74 2469 c3 -17 6 -56 6 -86 0 -36 4 -52 11 -48 6 4 13 -2 16 -14 3
-12 13 -21 24 -21 20 0 16 24 -8 48 -9 10 -10 19 -1 37 9 19 7 30 -7 51 -16
25 -16 28 -1 39 19 15 11 25 -22 25 -22 0 -24 -3 -18 -31z"/>
<path d="M216 2448 c-3 -24 -2 -56 3 -73 5 -16 10 -24 10 -16 1 8 8 22 16 31
12 14 13 23 4 51 -18 53 -26 54 -33 7z"/>
<path d="M696 2473 c-6 -14 -5 -15 5 -6 7 7 10 15 7 18 -3 3 -9 -2 -12 -12z"/>
<path d="M280 2455 c0 -8 7 -15 15 -15 8 0 15 4 15 9 0 5 -7 11 -15 15 -9 3
-15 0 -15 -9z"/>
<path d="M360 2405 c-34 -35 -45 -54 -45 -77 0 -17 -6 -33 -12 -35 -8 -3 -13
4 -13 16 0 25 -13 27 -31 5 -11 -14 -10 -19 10 -35 55 -44 112 -7 131 85 18
87 12 94 -40 41z"/>
<path d="M2130 2439 c0 -5 5 -7 10 -4 6 3 10 8 10 11 0 2 -4 4 -10 4 -5 0 -10
-5 -10 -11z"/>
<path d="M1980 2419 c0 -5 8 -9 18 -9 9 0 28 -3 42 -7 14 -3 22 -3 18 1 -11
12 -78 25 -78 15z"/>
<path d="M158 2390 c2 -17 9 -33 15 -37 6 -4 7 4 3 23 -10 41 -24 51 -18 14z"/>
<path d="M2100 2410 c0 -5 5 -10 11 -10 5 0 7 5 4 10 -3 6 -8 10 -11 10 -2 0
-4 -4 -4 -10z"/>
<path d="M25 2400 c3 -5 8 -10 11 -10 2 0 4 5 4 10 0 6 -5 10 -11 10 -5 0 -7
-4 -4 -10z"/>
<path d="M1230 2405 c0 -7 101 -57 106 -53 2 2 -21 16 -51 31 -30 15 -55 25
-55 22z"/>
<path d="M2480 2405 c0 -2 9 -9 20 -15 16 -9 18 -8 14 5 -5 13 -34 22 -34 10z"/>
<path d="M2480 2355 c7 -9 15 -13 17 -11 7 7 -7 26 -19 26 -6 0 -6 -6 2 -15z"/>
<path d="M1357 2339 c7 -7 15 -10 18 -7 3 3 -2 9 -12 12 -14 6 -15 5 -6 -5z"/>
<path d="M10 2313 c0 -10 5 -25 10 -33 8 -12 10 -9 10 12 0 15 -4 30 -10 33
-5 3 -10 -2 -10 -12z"/>
<path d="M80 2259 c0 -11 5 -17 10 -14 6 3 10 13 10 21 0 8 -4 14 -10 14 -5 0
-10 -9 -10 -21z"/>
<path d="M233 2267 c3 -8 11 -33 18 -56 14 -47 24 -52 33 -16 8 30 23 32 52 4
l22 -20 15 45 16 46 -22 -14 c-43 -27 -62 -27 -102 -1 -23 16 -35 21 -32 12z"/>
<path d="M200 2262 c0 -5 6 -17 14 -27 13 -18 14 -18 9 8 -5 24 -23 39 -23 19z"/>
<path d="M150 2245 c10 -12 10 -18 0 -30 -10 -12 -10 -18 1 -31 11 -13 10 -17
-4 -25 -9 -6 -17 -19 -17 -30 0 -20 19 -31 78 -44 28 -6 32 -4 32 13 0 11 -7
22 -15 26 -8 3 -15 16 -15 30 0 15 -7 25 -20 29 -14 4 -20 14 -20 35 0 18 -6
32 -16 36 -14 5 -15 4 -4 -9z"/>
<path d="M13 2243 c-18 -7 -16 -48 2 -63 13 -11 15 -7 15 29 0 22 -1 41 -2 40
-2 0 -9 -3 -15 -6z"/>
<path d="M106 2223 c-4 -9 -2 -21 4 -27 7 -7 10 -2 10 17 0 31 -5 34 -14 10z"/>
<path d="M297 2187 c-11 -29 -9 -43 4 -30 6 6 9 19 7 29 -3 18 -4 18 -11 1z"/>
<path d="M90 2156 c0 -22 17 -28 24 -10 9 22 8 24 -9 24 -8 0 -15 -6 -15 -14z"/>
<path d="M2400 2154 c0 -8 5 -12 10 -9 6 3 10 10 10 16 0 5 -4 9 -10 9 -5 0
-10 -7 -10 -16z"/>
<path d="M2520 2121 c0 -5 -9 -13 -20 -16 -26 -8 -25 -17 6 -54 24 -29 26 -30
57 -15 26 12 32 21 32 46 0 22 -6 33 -20 39 -28 11 -55 11 -55 0z"/>
<path d="M293 2083 c10 -32 12 -33 24 -17 18 24 17 29 -11 42 -23 10 -24 10
-13 -25z"/>
<path d="M257 2086 c-6 -15 1 -26 15 -26 11 0 10 27 -1 34 -5 3 -11 0 -14 -8z"/>
<path d="M460 1998 c0 -4 4 -8 9 -8 6 0 12 4 15 8 3 5 -1 9 -9 9 -8 0 -15 -4
-15 -9z"/>
<path d="M2028 930 c-7 -24 -3 -38 8 -28 3 4 4 17 2 30 l-3 23 -7 -25z"/>
<path d="M2088 413 c7 -3 16 -2 19 1 4 3 -2 6 -13 5 -11 0 -14 -3 -6 -6z"/>
<path d="M1436 82 l-19 -27 24 22 c12 12 21 24 18 27 -2 2 -13 -8 -23 -22z"/>
</g>
</svg>
